<?xml version="1.0" standalone="no"?>
<!DOCTYPE svg PUBLIC "-//W3C//DTD SVG 20010904//EN"
 "http://www.w3.org/TR/2001/REC-SVG-20010904/DTD/svg10.dtd">
<svg version="1.0" xmlns="http://www.w3.org/2000/svg"
 width="218.000000pt" height="218.000000pt" viewBox="0 0 218.000000 218.000000"
 preserveAspectRatio="xMidYMid meet">
<metadata>
Created by potrace 1.14, written by Peter Selinger 2001-2017
</metadata>
<g transform="translate(0.000000,218.000000) scale(0.100000,-0.100000)"
fill="#000000" stroke="none">
<path d="M23 1991 l-22 -20 0 -862 c0 -604 4 -868 11 -885 6 -14 21 -27 33
-30 28 -7 894 1 920 8 11 3 40 9 64 13 93 15 217 68 286 120 130 98 205 227
240 412 19 97 26 452 13 614 -14 178 -89 348 -197 447 -88 80 -252 160 -367
178 -22 3 -59 10 -84 14 -25 5 -232 9 -460 10 -402 1 -416 0 -437 -19z m889
-404 c71 -35 120 -90 144 -165 17 -50 19 -90 19 -327 0 -308 -7 -349 -71 -424
-64 -75 -99 -84 -321 -89 l-193 -4 0 522 0 522 183 -3 c176 -4 184 -5 239 -32z"/>
<path d="M1858 563 c-49 -28 -62 -43 -89 -101 -49 -104 -1 -235 100 -278 218
-92 404 172 242 343 -60 64 -175 80 -253 36z"/>
</g>
</svg>
